<svg width="120" height="120" viewBox="0 0 120 120" fill="none" xmlns="http://www.w3.org/2000/svg">
<path d="M110 0C115.523 2.41413e-07 120 4.47715 120 10V70C120 72.7614 118.881 75.2616 117.071 77.0713L117.072 77.0723L77.0723 117.072L77.0713 117.071C75.2616 118.881 72.7614 120 70 120H10C4.47715 120 1.64853e-06 115.523 0 110V50C1.20706e-07 47.2386 1.11907 44.7384 2.92871 42.9287L2.92773 42.9277L42.9277 2.92773L42.9287 2.92871C44.7384 1.11907 47.2386 -1.20704e-07 50 0H110ZM72 13V48H97V33H87V13H72Z" fill="white"/>
</svg>
